# xmcd
#
# Track frame offsets:
#	150
#	23052
#	40545
#
# Disc length: 844 seconds
#
# Revision: 0
# Processed by: cddbd v1.5.2PL0 Copyright (c) Steve Scherf et al.
# Submitted via: audiograbber 1.83.01
#
DISCID=15034a03
DTITLE=Tina Turner - CD-Single
DYEAR=1900
DGENRE=RnB
TTITLE0=In Your Wildest Dreams (12'' Version)
TTITLE1=In Your Wildest Dreams (7'' Version)
TTITLE2=In Your Wildest Dreams (Instrumental)
EXTD=
EXTT0=
EXTT1=
EXTT2=
PLAYORDER=
